<svg width="45" height="57" viewBox="0 0 45 57" fill="none" xmlns="http://www.w3.org/2000/svg">
<path d="M27.8621 44.0456L15.9375 46.4194C20.5466 35.7737 25.1557 25.1259 29.7648 14.476L41.3895 12.353L27.8437 44.0456" fill="#5B76E2"/>
<path d="M41.4359 12.2607C42.5494 16.7475 43.661 21.2342 44.7704 25.7209L31.402 56.5446C30.1335 52.4331 28.869 48.3217 27.6086 44.2102C32.2218 33.5645 36.8309 22.9186 41.4359 12.2728" fill="#5B76E2"/>
<path d="M12.5639 33.331L0.229492 35.7354L14.3994 2.69683L26.4462 0.549316C21.8167 11.4888 17.1893 22.4262 12.5639 33.3616" fill="#5B76E2"/>
<path d="M26.2321 0.544922C27.4068 5.20703 28.5774 9.86921 29.744 14.5313L16.0452 46.4196L12.0623 33.6141L26.2321 0.544922Z" fill="#5B76E2"/>
</svg>
